<svg width="17" height="19" viewBox="0 0 17 19" fill="none" xmlns="http://www.w3.org/2000/svg">
<path d="M13.5 6.00004C13.5 7.50004 13 9.50004 10.6 10.3C11.3 8.60004 11.4 6.90004 10.9 5.30004C10.2 3.20004 7.9 1.60004 6.3 0.700041C5.9 0.400041 5.2 0.800041 5.3 1.40004C5.3 2.50004 5 4.10004 3.3 5.80004C1.1 8.00004 0 10.3 0 12.5C0 15.4 2 19 6 19C2 15 5 11.5 5 11.5C5.8 17.4 10 19 12 19C13.7 19 17 17.8 17 12.6C17 9.50004 15.7 7.10004 14.6 5.70004C14.3 5.20004 13.6 5.50004 13.5 6.00004" fill="#D02E2E"/>
</svg>
