<svg width="138" height="89" viewBox="0 0 138 89" fill="none" xmlns="http://www.w3.org/2000/svg">
<g filter="url(#filter0_d_191_28)">
<path d="M14.1977 60C13.4981 60 12.9879 59.8542 12.6673 59.5627C12.3758 59.2421 12.23 58.7611 12.23 58.1198V32.1902C12.23 31.5489 12.3758 31.0679 12.6673 30.7473C12.9879 30.4266 13.4981 30.2663 14.1977 30.2663H27.0094C30.216 30.2663 32.6209 31.0096 34.2242 32.4963C35.8275 33.9539 36.6292 35.9798 36.6292 38.5742C36.6292 39.9443 36.2939 41.1687 35.6235 42.2472C34.9821 43.3258 34.093 44.0983 32.9562 44.5647C35.9587 45.5558 37.4599 47.7567 37.4599 51.1673C37.4599 52.8289 37.0664 54.3302 36.2793 55.6711C35.5214 57.0121 34.3554 58.0761 32.7813 58.8631C31.2363 59.621 29.3123 60 27.0094 60H14.1977ZM25.7851 42.291C26.9511 42.291 27.8548 41.9995 28.4961 41.4164C29.1374 40.8334 29.4581 39.9881 29.4581 38.8803C29.4581 37.6851 29.152 36.8398 28.5398 36.3442C27.9568 35.8195 27.0386 35.5571 25.7851 35.5571H19.4448V42.291H25.7851ZM26.4847 54.7092C27.7673 54.7092 28.7147 54.3739 29.3269 53.7035C29.9682 53.0038 30.2889 52.1002 30.2889 50.9924C30.2889 49.739 29.9245 48.8061 29.1957 48.194C28.467 47.5527 27.4467 47.232 26.1349 47.232H19.4448V54.7092H26.4847ZM48.7491 60.6559C46.3588 60.6559 44.4348 59.9854 42.9773 58.6445C41.5489 57.3036 40.8347 55.3067 40.8347 52.654V40.9355C40.8347 40.2941 40.9805 39.8131 41.272 39.4925C41.5926 39.1718 42.1028 39.0115 42.8024 39.0115H46.0818C46.8106 39.0115 47.3207 39.1718 47.6122 39.4925C47.9037 39.784 48.0495 40.265 48.0495 40.9355V52.3917C48.0495 53.5285 48.3264 54.3593 48.8803 54.8841C49.4633 55.4088 50.3087 55.6711 51.4164 55.6711C52.6116 55.6711 53.5736 55.3505 54.3023 54.7092C55.0602 54.0678 55.4392 53.1933 55.4392 52.0856V40.9355C55.4392 40.2941 55.585 39.8131 55.8765 39.4925C56.1971 39.1718 56.7218 39.0115 57.4506 39.0115H60.6863C61.4151 39.0115 61.9252 39.1718 62.2167 39.4925C62.5374 39.8131 62.6977 40.2941 62.6977 40.9355V58.7319C62.6977 59.2275 62.6103 59.5627 62.4354 59.7376C62.2605 59.9125 61.9107 60 61.3859 60H57.8879C57.2174 60 56.8676 59.7522 56.8384 59.2567L56.6635 57.6388C54.7396 59.6502 52.1014 60.6559 48.7491 60.6559ZM69.1552 60C68.4264 60 67.9017 59.8542 67.581 59.5627C67.2895 59.2421 67.1438 58.7611 67.1438 58.1198V40.2796C67.1438 39.784 67.2312 39.4488 67.4061 39.2739C67.581 39.099 67.9308 39.0115 68.4556 39.0115H71.6913C72.0411 39.0115 72.2889 39.0698 72.4346 39.1864C72.6095 39.303 72.7116 39.5071 72.7407 39.7986L72.9156 41.3727C73.761 40.4107 74.7084 39.6674 75.7578 39.1427C76.8072 38.618 78.0607 38.3556 79.5182 38.3556C82.0543 38.3556 83.8471 39.3613 84.8965 41.3727C86.529 39.3613 88.7736 38.3556 91.6303 38.3556C93.7875 38.3556 95.4782 38.9969 96.7026 40.2796C97.9269 41.533 98.5391 43.4424 98.5391 46.0077V58.1198C98.5391 58.7611 98.3787 59.2421 98.0581 59.5627C97.7666 59.8542 97.271 60 96.5714 60H93.8166C93.0879 60 92.5777 59.8542 92.2862 59.5627C91.9947 59.2421 91.849 58.7611 91.849 58.1198V46.4449C91.849 45.3372 91.6303 44.5501 91.1931 44.0837C90.785 43.5882 90.1582 43.3404 89.3129 43.3404C88.3509 43.3404 87.5638 43.661 86.9517 44.3024C86.3686 44.9437 86.0771 45.789 86.0771 46.8385V58.1198C86.0771 58.7611 85.9168 59.2421 85.5962 59.5627C85.3046 59.8542 84.8091 60 84.1095 60H81.6171C80.8883 60 80.3636 59.8542 80.0429 59.5627C79.7514 59.2421 79.6057 58.7611 79.6057 58.1198V46.27C79.6057 45.2789 79.4016 44.5501 78.9935 44.0837C78.6146 43.5882 78.017 43.3404 77.2008 43.3404C76.2096 43.3404 75.3934 43.6756 74.7521 44.3461C74.1399 44.9874 73.8339 45.8473 73.8339 46.9259V58.1198C73.8339 58.7611 73.6881 59.2421 73.3966 59.5627C73.1051 59.8542 72.5949 60 71.8662 60H69.1552Z" fill="#FAB219"/>
<path d="M104.767 68.8327C104.067 68.8327 103.557 68.6723 103.237 68.3517C102.945 68.0602 102.799 67.5938 102.799 66.9524V41.329C104.024 40.4836 105.583 39.784 107.478 39.2301C109.402 38.6471 111.37 38.3556 113.381 38.3556C122.01 38.3556 126.324 42.0869 126.324 49.5495C126.324 52.9601 125.391 55.6711 123.525 57.6825C121.689 59.6648 119.109 60.6559 115.786 60.6559C114.562 60.6559 113.439 60.4956 112.419 60.1749C111.428 59.8542 110.583 59.3733 109.883 58.7319V66.9524C109.883 67.5938 109.737 68.0602 109.446 68.3517C109.154 68.6723 108.644 68.8327 107.915 68.8327H104.767ZM114.168 55.7148C115.83 55.7148 117.069 55.161 117.885 54.0533C118.73 52.9455 119.153 51.4005 119.153 49.4183C119.153 47.232 118.657 45.6724 117.666 44.7396C116.675 43.8068 115.174 43.3404 113.162 43.3404C111.763 43.3404 110.655 43.5444 109.839 43.9525V51.7358C109.839 52.9893 110.233 53.9658 111.02 54.6654C111.836 55.365 112.885 55.7148 114.168 55.7148Z" fill="#A346FF"/>
</g>
<defs>
<filter id="filter0_d_191_28" x="-4" y="0" width="146" height="97" filterUnits="userSpaceOnUse" color-interpolation-filters="sRGB">
<feFlood flood-opacity="0" result="BackgroundImageFix"/>
<feColorMatrix in="SourceAlpha" type="matrix" values="0 0 0 0 0 0 0 0 0 0 0 0 0 0 0 0 0 0 127 0" result="hardAlpha"/>
<feOffset dy="4"/>
<feGaussianBlur stdDeviation="2"/>
<feComposite in2="hardAlpha" operator="out"/>
<feColorMatrix type="matrix" values="0 0 0 0 0 0 0 0 0 0 0 0 0 0 0 0 0 0 0.25 0"/>
<feBlend mode="normal" in2="BackgroundImageFix" result="effect1_dropShadow_191_28"/>
<feBlend mode="normal" in="SourceGraphic" in2="effect1_dropShadow_191_28" result="shape"/>
</filter>
</defs>
</svg>
