<svg width="115" height="39" viewBox="0 0 115 39" fill="none" xmlns="http://www.w3.org/2000/svg">
<path d="M2.1977 30C1.49808 30 0.987945 29.8542 0.667288 29.5627C0.375781 29.2421 0.230028 28.7611 0.230028 28.1198V2.19024C0.230028 1.54893 0.375781 1.06794 0.667288 0.747286C0.987945 0.426629 1.49808 0.2663 2.1977 0.2663H15.0094C18.216 0.2663 20.6209 1.00964 22.2242 2.49633C23.8275 3.95386 24.6292 5.97983 24.6292 8.57425C24.6292 9.94433 24.2939 11.1687 23.6235 12.2472C22.9821 13.3258 22.093 14.0983 20.9562 14.5647C23.9587 15.5558 25.4599 17.7567 25.4599 21.1673C25.4599 22.8289 25.0664 24.3302 24.2793 25.6711C23.5214 27.0121 22.3554 28.0761 20.7813 28.8631C19.2363 29.621 17.3123 30 15.0094 30H2.1977ZM13.7851 12.291C14.9511 12.291 15.8548 11.9995 16.4961 11.4164C17.1374 10.8334 17.4581 9.98805 17.4581 8.88033C17.4581 7.68515 17.152 6.83978 16.5398 6.34422C15.9568 5.81951 15.0386 5.55715 13.7851 5.55715H7.44482V12.291H13.7851ZM14.4847 24.7092C15.7673 24.7092 16.7147 24.3739 17.3269 23.7035C17.9682 23.0038 18.2889 22.1002 18.2889 20.9924C18.2889 19.739 17.9245 18.8061 17.1957 18.194C16.467 17.5527 15.4467 17.232 14.1349 17.232H7.44482V24.7092H14.4847ZM36.7491 30.6559C34.3588 30.6559 32.4348 29.9854 30.9773 28.6445C29.5489 27.3036 28.8347 25.3067 28.8347 22.654V10.9355C28.8347 10.2941 28.9805 9.81315 29.272 9.49249C29.5926 9.17183 30.1028 9.01151 30.8024 9.01151H34.0818C34.8106 9.01151 35.3207 9.17183 35.6122 9.49249C35.9037 9.784 36.0495 10.265 36.0495 10.9355V22.3917C36.0495 23.5285 36.3264 24.3593 36.8803 24.8841C37.4633 25.4088 38.3087 25.6711 39.4164 25.6711C40.6116 25.6711 41.5736 25.3505 42.3023 24.7092C43.0602 24.0678 43.4392 23.1933 43.4392 22.0856V10.9355C43.4392 10.2941 43.585 9.81315 43.8765 9.49249C44.1971 9.17183 44.7218 9.01151 45.4506 9.01151H48.6863C49.4151 9.01151 49.9252 9.17183 50.2167 9.49249C50.5374 9.81315 50.6977 10.2941 50.6977 10.9355V28.7319C50.6977 29.2275 50.6103 29.5627 50.4354 29.7376C50.2605 29.9125 49.9107 30 49.3859 30H45.8879C45.2174 30 44.8676 29.7522 44.8384 29.2567L44.6635 27.6388C42.7396 29.6502 40.1014 30.6559 36.7491 30.6559ZM57.1552 30C56.4264 30 55.9017 29.8542 55.581 29.5627C55.2895 29.2421 55.1438 28.7611 55.1438 28.1198V10.2796C55.1438 9.784 55.2312 9.44877 55.4061 9.27386C55.581 9.09896 55.9308 9.01151 56.4556 9.01151H59.6913C60.0411 9.01151 60.2889 9.06981 60.4346 9.18641C60.6095 9.30301 60.7116 9.50707 60.7407 9.79857L60.9156 11.3727C61.761 10.4107 62.7084 9.6674 63.7578 9.14268C64.8072 8.61797 66.0607 8.35561 67.5182 8.35561C70.0543 8.35561 71.8471 9.36131 72.8965 11.3727C74.529 9.36131 76.7736 8.35561 79.6303 8.35561C81.7875 8.35561 83.4782 8.99693 84.7026 10.2796C85.9269 11.533 86.5391 13.4424 86.5391 16.0077V28.1198C86.5391 28.7611 86.3787 29.2421 86.0581 29.5627C85.7666 29.8542 85.271 30 84.5714 30H81.8166C81.0879 30 80.5777 29.8542 80.2862 29.5627C79.9947 29.2421 79.849 28.7611 79.849 28.1198V16.4449C79.849 15.3372 79.6303 14.5501 79.1931 14.0837C78.785 13.5882 78.1582 13.3404 77.3129 13.3404C76.3509 13.3404 75.5638 13.661 74.9517 14.3024C74.3686 14.9437 74.0771 15.789 74.0771 16.8385V28.1198C74.0771 28.7611 73.9168 29.2421 73.5962 29.5627C73.3046 29.8542 72.8091 30 72.1095 30H69.6171C68.8883 30 68.3636 29.8542 68.0429 29.5627C67.7514 29.2421 67.6057 28.7611 67.6057 28.1198V16.27C67.6057 15.2789 67.4016 14.5501 66.9935 14.0837C66.6146 13.5882 66.017 13.3404 65.2008 13.3404C64.2096 13.3404 63.3934 13.6756 62.7521 14.3461C62.1399 14.9874 61.8339 15.8473 61.8339 16.9259V28.1198C61.8339 28.7611 61.6881 29.2421 61.3966 29.5627C61.1051 29.8542 60.5949 30 59.8662 30H57.1552Z" fill="#A346FF"/>
<path d="M92.7669 38.8327C92.0673 38.8327 91.5572 38.6723 91.2365 38.3517C90.945 38.0602 90.7993 37.5938 90.7993 36.9524V11.329C92.0236 10.4836 93.5832 9.784 95.478 9.23014C97.4019 8.64712 99.3696 8.35561 101.381 8.35561C110.01 8.35561 114.324 12.0869 114.324 19.5495C114.324 22.9601 113.391 25.6711 111.525 27.6825C109.689 29.6648 107.109 30.6559 103.786 30.6559C102.562 30.6559 101.439 30.4956 100.419 30.1749C99.4279 29.8542 98.5825 29.3733 97.8829 28.7319V36.9524C97.8829 37.5938 97.7371 38.0602 97.4456 38.3517C97.1541 38.6723 96.644 38.8327 95.9152 38.8327H92.7669ZM102.168 25.7148C103.83 25.7148 105.069 25.161 105.885 24.0533C106.73 22.9455 107.153 21.4005 107.153 19.4183C107.153 17.232 106.657 15.6724 105.666 14.7396C104.675 13.8068 103.174 13.3404 101.162 13.3404C99.7631 13.3404 98.6554 13.5444 97.8392 13.9525V21.7358C97.8392 22.9893 98.2327 23.9658 99.0198 24.6654C99.836 25.365 100.885 25.7148 102.168 25.7148Z" fill="#FAB219"/>
</svg>
